<svg id="LOGO" xmlns="http://www.w3.org/2000/svg" width="219.25" height="124.59" viewBox="0 0 219.25 124.59">
  <g id="Layer_1" data-name="Layer 1">
    <path id="Path_1" data-name="Path 1" d="M6.61,7.32H66.99L65,72.52H6.61" fill="#fff" stroke="#221f1f" stroke-miterlimit="10" stroke-width="0.35"/>
    <path id="Path_2" data-name="Path 2" d="M79.18,7.32h59.25l1.7,63.79H81.45" fill="#fff"/>
    <path id="Path_3" data-name="Path 3" d="M154.58,8.17h59.25l1.7,63.79H156.85" fill="#fff"/>
    <path id="Path_4" data-name="Path 4" d="M6.61,88.4H29.85v28.91H8.59" fill="#fff"/>
    <path id="Path_5" data-name="Path 5" d="M42.33,89.15H65.57v28.92H44.31" fill="#fff"/>
    <path id="Path_6" data-name="Path 6" d="M79.18,88.4h23.24v28.91H81.16" fill="#fff"/>
    <path id="Path_7" data-name="Path 7" d="M116.88,89.15h23.25v28.92H118.86" fill="#fff"/>
    <path id="Path_8" data-name="Path 8" d="M152.03,89.15h23.25v28.92H154.02" fill="#fff"/>
    <path id="Path_9" data-name="Path 9" d="M189.74,89.15h23.24v28.92H191.72" fill="#fff"/>
    <path id="Path_10" data-name="Path 10" d="M.57,79,.49,77.23l.16-2.51L.32,72.2.24,69.53.08,67.26V64.75l.24-2.67.16-2.35-.32-2.6L0,54.7l.4-2.51L.32,49.75.16,47.16l.08-2.51.08-2.59.24-2.51L.24,36.87l.08-2.59L.4,31.52l.24-2.59L.16,26.42.4,23.66,0,21.07l.73-5.19L.08,13.29l.48-2.51L0,8.1.32,5.51.73,3,.57.49,2.1,0,3.8.27,6.3.73h5.17L13.73.65h2.5L18.91,0h2.75l2.59.57L27,.32l2.5.4L32.16.57,34.74.08,37.49,0,40,.65,42.82.54,45.41.11,48.23,0,50.9.52l2.83.21h2.75L59.06.42,61.89,0l2.67.3,2.59.5L70,0V1.86l-.2,1.86.49,2.43L70,8.74l-.32,2.59.08,2.35-.32,2.43L70,18.78v2.43l.24,2.51-.08,2.43-.49,2.59-.16,2.43.65,2.59-.57,2.43.4,2.67L70,41.37V44l-.08,2.51-.24,2.75L70.21,52,70,59.74l.32,2.51L70,64.92l-.16,2.59.4,2.51L69.8,72.7l.2,2.59.16,2.51L70,80.55l-1.86-.08-1.78-.24L64,80.79l-2.59-.65-2.59.08-2.34.08L54,80.23l-2.67.57-2.75-.48-2.59.48-2.75-.47-5.17-.09-2.59.57-2.75-.4-2.5.4H24.88l-2.83-.32-2.67.32-2.83-.48-2.75.48-2.59-.4-2.83.16-2.67-.4-2.59.32-2.83.32ZM12.12,18.42l.16,2.42-.16,2.42-.73,2.5-.24,2.59L10.91,31l.4,2.42L10.83,36l-.49,5.25v8.24L10,52.35V55l-.49,2.83-.4,2.67.24,2.91-.57,2.91,2-.08,2.3-.24,2.42.32,2.42-.49,2.58.24.08-1.86.31-2L21.25,60V54.53l.32-5.09V46.62l.49-2.34.16,1.7,1.13,2.5,1.14,2.1.57,2.75,1.05,2.5,1,2.5,1.78,5.33,1,2.83L32,65.93l2.76.16,2.76.4,3.32-.24.24-1.62,1.05-2.5L42.8,60l1.05-2.59.89-2.5L46,52.51l2-5.57,1-2.75-.34,2L49,48.54l.08,2.26.4,2.35.32,2.67v5.09l.57,2.43-.24,3H52l2.26-.24,2.34.24,2.5.16,2.42-.57.16-1.62L61.24,62l.16-2.34L61,57.28,60.51,52V47.1l-.4-2.75.4-2.5-.28-2.67-.75-2.5L59.38,34l.08-2.5-.32-2.75L59,26.26l-.16-2.75-.08-2.59.16-2.83-.24-2.75-2.1.4-2.75-.32-2.75.32-3.23-.16-.65,1-.4,1.86L46,20.36l-.73,2.1L44,24.32l-.24,2.18L43,29.25l-1,2.42-1,2.5-1.37,2.18L39,39.18l-1,2.58-.73,2.35L35.9,46.37l-.4,3.07L35,47.18,34,45.4l-.81-2.59-.57-2.1-.73-2.18L31,36l-1.2-2.47-.89-2.59-1.29-2.26-.73-2.83L25,20.52l-.89-2.59-1-2.26-1.94.16-2.75-.32-2.74.24-3.23-.24L11.8,17Z"/>
    <path id="Path_11" data-name="Path 11" d="M75.14,78.77V77l.24-2.5L75.14,72l.24-4.93-.32-2.5L74.89,62l-.16-2.42L75.46,57l-.16-2.34L75,52l.49-2.42V47l-.57-2.42.16-2.67-.16-2.5.49-2.67.16-2.59-.16-2.67-.49-2.67-.08-2.5.4-2.67-.4-2.59.73-2.5-.49-2.67.08-2.59-.4-2.5.65-2.67-.49-2.59.16-2.5L75.22.4l1.62.08h1.78L81,.24l2.59.4L88.55.32,91,.65,93.64,0l2.75.24L99,0l2.67.48L104.22,0l2.67.73L109.47.4l2.67.08h5.33l2.67.16,2.75-.16h2.67l2.83.24,2.75-.08L133.79,0l2.75.4,2.67.32L141.8.24l2.83.16-.1,1.6.4,1.78-.57,2.5-.08,2.59.32,4.93.32,2.42-.08,2.67-.24,2.34.16,2.59-.57,2.42.4,2.5-.08,2.42-.32,2.59.32,2.42-.32,2.67.65,2.5-.4,2.67.32,2.59-.4,2.75.16,2.59.32,2.5v2.67l-.32,2.59-.16,2.5.65,2.67-.32,2.59.24,2.5-.32,2.67-.4,2.59.16,2.5.32,2.75-1.78-.16-1.78.48-2.5-.43-5.17-.22-2.26.65-2.5-.57-2.59.11-2.83.45-2.5-.4-2.75.4h-2.5l-2.75-.48-2.5.16-2.75-.16-2.59-.08-2.75.16-2.58.4-2.83-.57-2.67.57H91.29l-2.75-.32L86,80.79l-2.83-.24-2.67.24-2.59-.16-2.59-.48Zm27.15-61.89-1.94,3.88-.57,2.42-.57,2.59L98,28.28l-1,2.67-.57,2.5-1,2.59-.73,2.34-1,2.5-1,2.26-1.45,5.33L90.24,51,89,53.24,88.63,56l-1,2.34-1.05,2.59L86,63.5,85.07,66,87,65.76l2.18.08L92,65.76l2.91.32L97.75,66l1-1.54.49-1.94.89-2.42.65-2.75,1-2.67,1.7.24,2.34-.57h5.73l3,.57h2.91l1.05,1.38.8,2.56.79,2.53.62,2.33,1.13,2.59,2.26-.4,2.18-.08,2.82.49,2.82-.24,2.91.08L134.11,65l-.49-1.86-1.21-2.26-.73-2.42-.81-2.59-1.13-2L129,51.46,127.81,49l-.4-2.4L126.6,44l-.89-2.24-1.29-2.16-.48-2.69L123,34.5l-1.7-2.26-.89-2.42-.49-2.5-1.13-2.42-.65-2.42L117.07,20l-1.13-2.34-.81-2.26-1.53-.24-2.34.24-2.91.24-2.83-.24-3.07-.48ZM109.87,35l1,2.35.83,2.25,1,2.51h-6.51L107.53,38l.89-2.36.81-2.45Z"/>
    <path id="Path_12" data-name="Path 12" d="M149.38,78.69l-.57-1.7.32-2.5-.32-2.59V69.32l.4-2.34.16-2.42-.4-2.67V59.54l.16-2.59.08-2.42-.4-2.59-.08-2.34L149,47V41.93l.24-2.5.16-2.67V34.17l-.32-2.75L149,28.84l.08-2.5.32-2.75L149.22,21l-.57-2.42.16-2.75-.08-2.5v-2.5L149,8.16l.4-5.17L148.9.24l1.86.32h1.78L155,0l2.59.32,2.59.22,2.34.11L164.89,0l2.67.18,2.75.36,2.59.18L175.64,0l2.5.48,2.67-.12L183.4.12,186.06,0l2.59.65L191.39.4h5.41l2.67.24,2.91-.4L205,.4l2.67-.4,2.75.73,2.75-.4,2.59.24,2.83-.32L218.38,2l.24,1.78-.32,2.43.08,2.59.4,2.67-.16,2.27-.4,2.43.08,2.67-.08,2.43.49,2.59-.24,2.35-.16,2.59.24,2.43-.32,2.59v2.43l.49,2.67.24,2.43-.73,2.75.57,2.51-.32,2.75v2.67l-.16,2.51.08,2.67-.24,2.59.16,2.51.4,2.67-.57,2.59.65,2.51v2.67l-.24,2.59v2.51l.16,2.75-1.86.16-1.78-.52-2.42-.21-2.59.42-2.59.31-2.34-.73-2.42.08-2.67.16-2.83-.16-2.5.65H192l-2.5-.32-5.25-.08-2.75-.24-2.59-.08-2.75.48-2.58-.4-5.49.24-2.83.16-2.75-.08-2.59.08-5.49-.32-2.59-.08-2.59-.08Zm11.8-61.41-.57,2.34.57,4.75v2.58l-.57,2.66.32,2.42.24,2.5-.57,2.74V50.06l.57,2.74-.57,2.5.57,2.74L161,60.61l-.14,2.82-.21,2.82,1.95-.57h2.27l2.43.49,2.43.08,2.59-.08,2.76.32h7.7l2.19-.4h2.19l2.18-.32,1.86-1.29,2.42-.81,2.5-.89,2.1-1.54,2-1.62,1.7-2,1.45-2.1,1.21-2.26L205.85,51l2.1-4.93.4-2.67L208,40.64l.57-1.86-.49-2.18-.48-2.1L207,32l-.65-2.5-1.78-1.94-1.13-2.26-1.53-2L200,21.57l-2-1.7-2-1.62-2.42-1.05-2.67-.57-2.5-1.05-2.75-.48-2.81.19-1.69.13h-2.25l-2.41-.32-2.41.32-2.57-.32h-5.14l-2.49.32h-2.73ZM195.6,42.41,194.94,45l-1.22,2.26-1.45,2.1-2,1.71L188,52.44l-2.5.65-2.67.48h-9l-.16-2.1V28h11.08l2.17.46,2.41,1,2.17,1.45,1.85,1.94,1.26,2.53.74,2.46.29,2.83Z"/>
    <path id="Path_13" data-name="Path 13" d="M.53,123.44l.12-.89L.53,121.3l.12-1.25-.32-1.33.28-1.13v-1.25l-.08-1.29v-1.21l-.28-1.29.16-1.17.16-1.29v-1.21l-.2-1.29-.08-1.21.32-1.33-.2-1.25-.16-1.33.28-1.29L.44,99.9V97.32L.69,96,.44,94.71l.24-1.25L.44,92.13V89.59l.12-1.33L.36,87l.16-1.25V84.42l.76-.08.88-.08,1.25.05,1.25.11L6,84.24l1.13.32,1.25-.08,1.33-.2h1.37l2.61.16H15l1.33-.16,1.29.16h1.33l1.29-.16,1.37.2,1.33-.2,1.37.12,1.33-.12,1.45.36,1.33-.36,2.69.16,1.37-.16,1.29.36,1.41-.24-.16.88v.88l.16,1.25v1.25L35.26,90v1.13L35,92.32l.16,1.33-.24,1.17.28,1.29-.2,1.2.28,1.25-.16,1.21.08,1.29v1.25l-.2,1.27.16,1.25L35,106.15l.16,1.29v3.91L35,112.71v2.49l.2,1.37-.2,1.28.28,1.21-.16,1.33.16,1.33L35.1,123l.08,1.37-.92-.24-.88.36-1.21-.36-1.29.36H29.59l-1.17-.32-1.21.08-1.33.16H24.49l-1.25.12-1.37-.2H20.63l-1.37-.12L18,124.4H16.63l-1.29-.19H13.97l-1.29.08-1.41-.08L10,124.12l-1.41.12H7.22l-1.29-.12-1.41.16-1.33.2L1.9,124.4H.49Zm19.9-14.55-.4.8-1.19.64-1-.12-1.27-.52-.8-.8-.28-1.29-1,.28H13.14l-1.31.36.36,1,.44,1.33.52,1.25,1.31.8.76.88h1.31l1.31.28h1.47l.08.08v-.08l.92-.24,1.09-.76,1-.72,1-.8.52-1.25.44-1.25-.28-1v-.96l-.46-1-.34-1-.73-.76L20.5,102.8l-1.21-.4-1.17-.68-1.33-.12-.76-1-.52-1.4v-.48l.64-.8,1-.36h1.09l1.09.64.77.6.44,1.36.91-.35,1.39-.16h1.35l-.36-1.25L23.56,97l-.85-1-1-.92L19.35,94H18l-1.34-.2-1,.28-1.21.36-.85,1-.89,1-.57,1.25-.32,1.09V100l.24,1.25.48,1.21.72,1,1.17.68,1,.88,1.21.24,1.25.48,1.16.66,1.3.84Z"/>
    <path id="Path_14" data-name="Path 14" d="M71.84,85.25l-.12.89.16,1.25v1.25L72,90v1.1l-.2,1.25v1.29l-.08,1.21v1.29l.12,1.17L71.8,98.6v1.21l.2,1.29.08,1.21-.2,1.33v1.25l.12,1.33-.28,1.25v2.7l.08,1.25v1.33L72,114l-.24,1.25.2,2.62-.24,1.25.12,1.33-.08,1.29v1.25l.28,1.41-1-.12-.88-.24-1.21.2H67.66l-1.29-.12H65.2L64,124l-1.33.4H61.23L60,124.17l-2.61.28L56,124.29H54.75l-1.37-.08-1.25.28-1.41-.08-1.29-.28-1.41.12H46.69l-1.41.28-1.37-.16-1.29-.2-1.41.31-1.33.05-1.29-.24-1.45.24.08-1,.16-.89-.16-1.21v-1.29l-.2-1.29.24-1.17v-2.54l-.32-1.17.32-1.29v-1.21l-.12-1.29v-1.17l.08-1.29-.28-1.25.36-1.29-.32-1.25V102.6l.12-1.29-.12-1.37.32-1.29-.2-1.25.12-1.37-.12-1.29V93.53l-.16-1.33.24-1.29-.16-1.25.08-1.33V85.7l.12-1.29h.72l.88-.12,1.21.2,1.29-.08,1.29.2,1.17-.18,1.21-.09h1.33l1.37.05,1.29.11H50.5l1.25.08,1.33-.24h1.29l1.37.2,1.25.12,1.41-.32,1.29.28,1.41-.28,1.33.08,1.41.16,1.33-.12H66.5l1.37-.16h1.37l1.29.08,1.29.24ZM55.4,114l1.25-.4,1.21-.36,1.29-.32,1.09-.68.8-1,1-.76.56-1.17.8-1.09-1.28.12H60.55l-1.53.09-.95.74-1.13.63-1.29.32-1.33.16-1,.24-1-.44-1.21-.48-1-.8-.77-1-.57-1.17-.44-1.21-.23-1.33-.08-1L49.11,101l.72-1,.89-.93,1.09-.72,1.25-.4h1.33l1-.28,1.17.6,1.29.36.86,1.11,1.09-.25,1.09-.13,1.17.24,1.17-.16-.56-.76-.56-.92-.68-.88-.92-.6-1-.88-1.17-.56-1.25-.52-2.73-.08-1.17-.16-1.29.16-1.25.44-1,.8-2.17,1.37-1,.84-.92,1.21-.32,1.33-.68,1.17-.08,1.33-.16,1.37.48,2.37.2,1.13.76,1,.52,1.21,1,.84.72,1.09,1.33.8,1.17.56,1.21.6h1.33l1.37.36Z"/>
    <path id="Path_15" data-name="Path 15" d="M108.91,85.25l-.08.88v1.25l-.12,1.25.2,1.33-.12,1.13-.08,1.25v1.29l-.08,1.21.12,1.29V99.8l-.08,1.29.08,1.21-.16,1.33v1.25l.28,1.33v6.52l-.12,1.29.12,1.25v1.33l-.16,1.29v1.25l.12,1.33-.08,1.29.12,1.25-.2,1.29-.76-.16-.88.4-1.21-.28-1.29.12-1.29-.2h-1.17l-1.21.12-1.33-.16-2.65.16-1.37.05-1.25.15L93,124.39l-1.29-.31-1.37.2-1.25.16H87.72l-1.33-.28-1.37.06-1.37.22-1.41-.32-1.33.32-1.33-.16H78.21l-1.37-.08-1.29.28-1.41-.12v-.89l-.16-.89.32-1.21-.24-1.29.2-1.29-.08-1.17-.16-1.21.2-1.33-.12-1.17v-1.29l.2-1.21v-1.25L74.22,109l.08-1.29v-1.25l-.12-1.29.08-1.25-.08-1.33.2-1.29V99.93L74,97.36,74.13,96l.2-1.29-.28-1.21.2-1.33V90.88l-.16-1.25.16-1.33-.2-1.3V85.77l.32-1.25.68-.28.88.24h2.5l1.29-.28,1.17.28,1.21-.28,1.33.17,2.65.11,1.37-.28,1.25.19,1.37.09,1.25-.16,1.37.24L94,84.53l1.37-.28,1.29.28L98,84.24l1.33.32,1.41-.09,2.65-.23,1.41.24h3.99ZM98.78,111.42l-.12-1.17.12-1.25v-1.25l-.2-1.37.2-1.41V98.44l-.16-1.33V95.7l.16-1.41-1,.2-1.39.08L95,94.42v2l.12,1.4L95.08,99l-.16,1.48.24,1.56H93.07l-1.45.12-1.21-.1H87.6v-1l-.16-2.55V97.36l.36-1.47v-1.6H86.7l-1.42.12H83.86l.1,1,.1,2.27-.2,1.24v1.28l.2,1.32-.2,1.4.2,1.24-.32,1.37.32,1.21-.2,1.33v2.73l.2,1.41v1.29l.86.16h1.36l1.24-.24.08-.85-.11-1.13L87.44,110l.16-1.21-.19-1.49.36-1.36h4.48l1.53-.32,1.25.2v4.67l.15,1.48L95,113.35h3.58Z"/>
    <path id="Path_16" data-name="Path 16" d="M110.8,123.44l.32-.88-.12-1.25v-1.25l.08-1.33-.12-1.13.2-1.25-.12-1.29.16-1.21v-1.29l-.32-1.17.2-1.29v-1.21l-.2-1.29.24-1.21-.08-1.33.08-1.25-.16-1.33.24-1.29L111,98.6l-.08-1.25.2-1.33L111,94.74l.12-1.25-.28-1.33.16-1.29.16-1.25-.32-1.33.28-1.29-.24-1.25.2-1.29.76-.08.88.08,1.25-.24,1.25.12,1.33-.12,1.13.31,1.21.05,1.33-.16,1.41.12,2.61-.32,1.25.11,1.37.05,1.25-.16,1.37.12,1.25.24,1.41-.32h1.29l1.41.28,1.33-.11,1.41-.17,1.37.2h1.29l1.37.16,1.37-.36h1.29l1.37.12-.12.89.2.89.08,1.21-.08,1.29V90l-.08,1.17.12,1.21-.28,1.33v2.46l.12,1.21.24,1.25-.24,1.21-.16,2.5.36,1.33-.36,1.25.24,1.33.08,1.29v1.37l-.28,1.29.32,1.25v1.33l-.12,1.29.08,1.25v1.33l-.16,1.29v1.25l.12,1.33-.12,1.29.08,1.25.16,1.45-1-.11-.88-.21-1.21.32-1.29-.32-1.29.2-1.17-.12-1.21-.12-1.33.36-1.37-.08-1.29-.12-1.37.08h-1.25l-1.33-.2-1.29.36-1.37-.32-1.25.12-4.06-.12h-1.33l-1.45.36-1.33-.05-1.33-.27-1.37.32-1.37-.2-1.29-.12h-1.29Zm15.92-29.51-1.25.44-1.25.24-1.25.44-.93.92-1.13.64-.88,1-.93,1.21-.6,1.21-.24,1.33-.48,1.25L118,104v2.46l.56,1.21.48,1.21.64,1.13,1,.8,1,.8,1,1.17,1.21.56,1.37.12,1.25.44,1.37.12,1.13-.08,1.25-.44,1.25-.24,1.09-.64,1.09-.68,1.13-.64.72-1.09,1-1.13.6-1.17.28-1.29.52-1.25-.16-1.37-.12-1.17-.16-1.25-.4-1.21-.52-1.17-.68-1.09-.6-1.17-1-.88-1.29-.8-1.21-.52-1.29-.32-1.25-.4-1.37-.2Zm.16,16.27-1-.32-1.15-.54-1-.72-.85-1-.73-1.08-.4-1.24-.16-1.32.12-1,.24-1,.52-1.2.8-1,1-.84,1.12-.64,1.24-.36,1.33-.24,1,.12,1.08.2,1.16.56,1,.77.84,1,.69,1.09.46,1.26.08,1.36v1l-.37,1-.45,1.2-.85,1-.95.86-1.08.69-1.24.44-1.32.08Z"/>
    <path id="Path_17" data-name="Path 17" d="M147.58,123.44l.32-.88-.12-1.25v-1.25l.08-1.33-.12-1.13.2-1.25-.12-1.29.16-1.21v-1.29l-.32-1.17.2-1.29v-1.21l-.2-1.29.24-1.21-.08-1.33.08-1.25-.16-1.33.24-1.29-.12-2.65-.08-1.25.2-1.33-.16-1.29.12-1.25-.28-1.33.16-1.29.16-1.25-.32-1.33.28-1.29-.24-1.25.2-1.29.76-.08.89.08,1.25-.24,1.25.12,1.33-.12,1.13.31,1.21.05,1.33-.16,1.41.12,2.61-.32,1.25.11,1.37.05,1.25-.16,1.37.12,1.25.24,1.41-.32h1.29l1.41.28,1.33-.11,1.41-.17,1.37.2h1.29l1.37.16,1.37-.36h1.29l1.37.12-.12.89.2.89.08,1.21-.08,1.29V90l-.08,1.17.12,1.21-.28,1.33v2.46l.12,1.21.24,1.25-.24,1.21-.16,2.5.36,1.33-.36,1.25.24,1.33.08,1.29v1.37l-.28,1.29.32,1.25v1.33l-.12,1.29.08,1.25v1.33l-.16,1.29v1.25l.12,1.33-.12,1.29.08,1.25.16,1.45-1-.11-.89-.21-1.21.32-1.29-.32-1.29.2-1.17-.12-1.21-.12-1.33.36-1.37-.08-1.29-.12-1.37.08H168l-1.33-.2-1.29.36-1.37-.32-1.25.12-4.06-.12h-1.33l-1.45.36-1.33-.05-1.33-.27-1.37.32-1.37-.2-1.29-.12h-1.29ZM163.5,93.93l-1.25.44-1.25.24-1.25.44-.93.92-1.13.64-.88,1-.93,1.21-.6,1.21-.24,1.33-.48,1.25.24,1.41v2.46l.56,1.21.48,1.21.64,1.13,1,.8,1,.8,1,1.17,1.21.56,1.37.12,1.25.44,1.37.12,1.12-.08,1.25-.44,1.25-.24,1.08-.64,1.09-.68,1.13-.64.72-1.09,1-1.13.6-1.17.28-1.29.52-1.25-.16-1.37-.12-1.17-.16-1.25-.4-1.21-.52-1.17-.68-1.09-.6-1.17-1-.88-1.29-.8-1.21-.52-1.29-.32L166,94l-1.37-.2Zm.16,16.27-1-.32-1.15-.54-1-.72-.85-1-.73-1.08-.4-1.24-.16-1.32.12-1,.24-1,.52-1.2.8-1,1-.84,1.12-.64,1.25-.36,1.32-.24,1,.12,1.08.2,1.16.56,1,.77.84,1,.69,1.09.46,1.26.08,1.36v1l-.37,1-.45,1.2-.85,1-.95.86-1.08.69-1.25.44-1.32.08Z"/>
    <path id="Path_18" data-name="Path 18" d="M184.45,123.44l.12-.89v-1.21l.08-1.29-.28-1.29.12-1.17-.16-1.21.32-1.33-.16-1.17v-2.5l.24-1.25-.32-1.21.12-1.29-.12-2.53.24-1.25v-1.33l-.24-1.29.32-1.37-.12-1.29.12-1.25L184.37,96l.24-1.29.08-1.25-.16-1.33V90.84l-.08-1.25V86.97l-.16-1.25.16-1.33.8.16h.88l1.25-.4,1.25.12,1.33-.12,1.13.2,1.25-.15,1.29-.05,1.41.24,1.25-.08,1.37.08,1.25-.24,1.37.1,1.25.26,1.37-.16,3.94.16,1.41-.16h1.33l1.41-.24,1.37.16h1.29l1.41-.12h1.33l1.29.08h1.45l-.08.93-.2.85.32,1.25-.08,1.29v2.42l.08,2.58v1.17l-.24,1.29.16,1.17.08,1.29v1.21l.08,1.29-.24,1.21.24,1.33v1.25l-.36,1.33.16,1.29.08,1.33-.12,1.33.12,1.25.08,1.33v1.29l-.2,1.25.2,1.33-.16,1.29-.08,1.25-.12,1.33.32,1.29v1.25l-.24,1.25-.72.2-.88-.28h-1.21l-1.29.08-1.29.2-1.13-.28h-1.25l-1.33.12h-2.66l-1.33-.16-1.29-.08h-1.33l-1.25.12h-2.66L198,124h-1.29l-1.41.12H194l-1.41.12H190l-1.41.08h-1.33l-1.29-.24-1.49.24ZM195.63,95.3l-.16,1.17v1.17l.24,1.21-.24,1.29v1.33l.2,1.41-.2,1.25.12,1.37-.12,1.2v2.72l.11,1.32.05,1.4v1.28h2.13l1.13.24,2.45-.12,1.33-.12,1.41.28,1.25-.4,1.33.12h2.73v-.92l.2-1.37-.32-1.33h-.69l-1.41-.08h-2.58l-1.25.08-1.29-.08h-1.37l-1.53.08.12-.92v-2.41l.08-1.21-.16-1.25V98.48l.28-1.41-.28-1.29V94.46l-.84.12-1.41-.36-1.41.16Z"/>
  </g>
</svg>
