<svg xmlns="http://www.w3.org/2000/svg" viewBox="0 0 36 29"><title>menu</title><g id="Layer_2" data-name="Layer 2"><g id="Layer_1-2" data-name="Layer 1"><g id="MENU"><path id="Rectangle_1" data-name="Rectangle 1" d="M3.5,0h29A3.5,3.5,0,0,1,36,3.5h0A3.5,3.5,0,0,1,32.5,7H3.5A3.5,3.5,0,0,1,0,3.5H0A3.5,3.5,0,0,1,3.5,0Z"/><path id="Rectangle_2" data-name="Rectangle 2" d="M3.5,11h29A3.5,3.5,0,0,1,36,14.5h0A3.5,3.5,0,0,1,32.5,18H3.5A3.5,3.5,0,0,1,0,14.5H0A3.5,3.5,0,0,1,3.5,11Z"/><path id="Rectangle_3" data-name="Rectangle 3" d="M3.5,22h29A3.5,3.5,0,0,1,36,25.5h0A3.5,3.5,0,0,1,32.5,29H3.5A3.5,3.5,0,0,1,0,25.5H0A3.5,3.5,0,0,1,3.5,22Z"/></g></g></g></svg>